<?xml version="1.0" encoding="UTF-8" standalone="no"?>
<svg
   xmlns:dc="http://purl.org/dc/elements/1.1/"
   xmlns:cc="http://creativecommons.org/ns#"
   xmlns:rdf="http://www.w3.org/1999/02/22-rdf-syntax-ns#"
   xmlns:svg="http://www.w3.org/2000/svg"
   xmlns="http://www.w3.org/2000/svg"
   xmlns:sodipodi="http://sodipodi.sourceforge.net/DTD/sodipodi-0.dtd"
   xmlns:inkscape="http://www.inkscape.org/namespaces/inkscape"
   id="Capa_1"
   enable-background="new 0 0 320 320"
   viewBox="0 0 320 320"
   version="1.1"
   sodipodi:docname="next.svg"
   inkscape:version="1.0.1 (3bc2e813f5, 2020-09-07, custom)">
  <metadata
     id="metadata39">
    <rdf:RDF>
      <cc:Work
         rdf:about="">
        <dc:format>image/svg+xml</dc:format>
        <dc:type
           rdf:resource="http://purl.org/dc/dcmitype/StillImage" />
      </cc:Work>
    </rdf:RDF>
  </metadata>
  <defs
     id="defs37" />
  <sodipodi:namedview
     pagecolor="#ffffff"
     bordercolor="#666666"
     borderopacity="1"
     objecttolerance="10"
     gridtolerance="10"
     guidetolerance="10"
     inkscape:pageopacity="0"
     inkscape:pageshadow="2"
     inkscape:window-width="3770"
     inkscape:window-height="2115"
     id="namedview35"
     showgrid="false"
     inkscape:zoom="4.934375"
     inkscape:cx="160"
     inkscape:cy="160"
     inkscape:window-x="70"
     inkscape:window-y="0"
     inkscape:window-maximized="1"
     inkscape:current-layer="Capa_1" />
  <path
     d="m288 0c-8.832 0-16 7.168-16 16v116.64l-232.16-130.592c-4.896-2.752-11.008-2.72-15.904.128s-7.936 8.128-7.936 13.824v288c0 5.696 3.04 10.944 7.936 13.824 2.464 1.44 5.28 2.176 8.064 2.176 2.72 0 5.408-.672 7.84-2.048l232.16-130.592v116.64c0 8.832 7.168 16 16 16s16-7.168 16-16v-288c0-8.832-7.168-16-16-16z"
     id="path2"
     style="fill:#ffffff" />
  <g
     id="g4" />
  <g
     id="g6" />
  <g
     id="g8" />
  <g
     id="g10" />
  <g
     id="g12" />
  <g
     id="g14" />
  <g
     id="g16" />
  <g
     id="g18" />
  <g
     id="g20" />
  <g
     id="g22" />
  <g
     id="g24" />
  <g
     id="g26" />
  <g
     id="g28" />
  <g
     id="g30" />
  <g
     id="g32" />
</svg>
