<?xml version="1.0" encoding="UTF-8" standalone="no"?>
<svg
   xmlns:dc="http://purl.org/dc/elements/1.1/"
   xmlns:cc="http://creativecommons.org/ns#"
   xmlns:rdf="http://www.w3.org/1999/02/22-rdf-syntax-ns#"
   xmlns:svg="http://www.w3.org/2000/svg"
   xmlns="http://www.w3.org/2000/svg"
   xmlns:sodipodi="http://sodipodi.sourceforge.net/DTD/sodipodi-0.dtd"
   xmlns:inkscape="http://www.inkscape.org/namespaces/inkscape"
   id="Capa_1"
   enable-background="new 0 0 320 320"
   viewBox="0 0 320 320"
   version="1.1"
   sodipodi:docname="pause.svg"
   inkscape:version="1.0.1 (3bc2e813f5, 2020-09-07, custom)">
  <metadata
     id="metadata41">
    <rdf:RDF>
      <cc:Work
         rdf:about="">
        <dc:format>image/svg+xml</dc:format>
        <dc:type
           rdf:resource="http://purl.org/dc/dcmitype/StillImage" />
      </cc:Work>
    </rdf:RDF>
  </metadata>
  <defs
     id="defs39" />
  <sodipodi:namedview
     pagecolor="#ffffff"
     bordercolor="#666666"
     borderopacity="1"
     objecttolerance="10"
     gridtolerance="10"
     guidetolerance="10"
     inkscape:pageopacity="0"
     inkscape:pageshadow="2"
     inkscape:window-width="843"
     inkscape:window-height="483"
     id="namedview37"
     showgrid="false"
     inkscape:zoom="4.934375"
     inkscape:cx="160"
     inkscape:cy="160"
     inkscape:window-x="70"
     inkscape:window-y="0"
     inkscape:window-maximized="0"
     inkscape:current-layer="Capa_1" />
  <path
     d="m112 0h-96c-8.832 0-16 7.168-16 16v288c0 8.832 7.168 16 16 16h96c8.832 0 16-7.168 16-16v-288c0-8.832-7.168-16-16-16z"
     id="path2"
     style="fill:#ffffff" />
  <path
     d="m304 0h-96c-8.832 0-16 7.168-16 16v288c0 8.832 7.168 16 16 16h96c8.832 0 16-7.168 16-16v-288c0-8.832-7.168-16-16-16z"
     id="path4"
     style="fill:#ffffff" />
  <g
     id="g6" />
  <g
     id="g8" />
  <g
     id="g10" />
  <g
     id="g12" />
  <g
     id="g14" />
  <g
     id="g16" />
  <g
     id="g18" />
  <g
     id="g20" />
  <g
     id="g22" />
  <g
     id="g24" />
  <g
     id="g26" />
  <g
     id="g28" />
  <g
     id="g30" />
  <g
     id="g32" />
  <g
     id="g34" />
</svg>
