<?xml version="1.0" encoding="UTF-8" standalone="no"?>
<svg
   xmlns:dc="http://purl.org/dc/elements/1.1/"
   xmlns:cc="http://creativecommons.org/ns#"
   xmlns:rdf="http://www.w3.org/1999/02/22-rdf-syntax-ns#"
   xmlns:svg="http://www.w3.org/2000/svg"
   xmlns="http://www.w3.org/2000/svg"
   xmlns:sodipodi="http://sodipodi.sourceforge.net/DTD/sodipodi-0.dtd"
   xmlns:inkscape="http://www.inkscape.org/namespaces/inkscape"
   version="1.1"
   id="Capa_1"
   x="0px"
   y="0px"
   viewBox="0 0 489.9 489.9"
   style="enable-background:new 0 0 489.9 489.9;"
   xml:space="preserve"
   sodipodi:docname="shuffle.svg"
   inkscape:version="1.0.2 (e86c870879, 2021-01-15)"><metadata
   id="metadata79"><rdf:RDF><cc:Work
       rdf:about=""><dc:format>image/svg+xml</dc:format><dc:type
         rdf:resource="http://purl.org/dc/dcmitype/StillImage" /></cc:Work></rdf:RDF></metadata><defs
   id="defs77" /><sodipodi:namedview
   pagecolor="#ffffff"
   bordercolor="#666666"
   borderopacity="1"
   objecttolerance="10"
   gridtolerance="10"
   guidetolerance="10"
   inkscape:pageopacity="0"
   inkscape:pageshadow="2"
   inkscape:window-width="3770"
   inkscape:window-height="2115"
   id="namedview75"
   showgrid="false"
   inkscape:zoom="3.2231068"
   inkscape:cx="244.95"
   inkscape:cy="244.95"
   inkscape:window-x="70"
   inkscape:window-y="0"
   inkscape:window-maximized="1"
   inkscape:current-layer="Capa_1" />
<g
   id="g42"
   style="fill:#ffffff">
	<g
   id="g10"
   style="fill:#ffffff">
		<g
   id="g8"
   style="fill:#ffffff">
			<path
   d="M391.2,469.994c3.4,3.4,7.8,5.1,12.3,5.1c4.3,0,8.7-1.6,12-4.9l69.3-67.8c3.3-3.2,5.1-7.6,5.1-12.3s-1.9-9-5.1-12.3     l-69.3-67.8c-6.8-6.6-17.6-6.5-24.3,0.2c-6.6,6.8-6.5,17.6,0.2,24.3l39.2,38.4h-43.5c-26.5,0-51.4-11.7-68.5-32l-151-205.5     c-23.1-32.7-60.8-52.3-100.8-52.3H17.2c-9.5,0-17.1,7.7-17.1,17.2s7.7,17.1,17.1,17.1h49.6c28.9,0,56.2,14.1,73,38l151.6,206.3     c0.2,0.3,0.4,0.5,0.6,0.8c23.6,28.5,58.2,44.9,95.2,44.9h43.5l-39.2,38.4C384.6,452.394,384.5,463.194,391.2,469.994z"
   id="path2"
   style="fill:#ffffff" />
			<path
   d="M484.7,87.994l-69.7-68.3c-6.8-6.6-17.6-6.5-24.3,0.2c-6.6,6.8-6.5,17.6,0.2,24.3l39.7,38.9h-43.5     c-36.9,0-71.6,16.3-95.2,44.8c-0.2,0.2-0.4,0.5-0.6,0.8l-28.4,38.7c-5.6,7.6-4,18.4,3.7,24c3.1,2.2,6.6,3.3,10.1,3.3     c5.3,0,10.5-2.4,13.8-7l28.1-38.2c17-20.4,41.9-32,68.5-32h43.5l-39.7,38.9c-6.8,6.6-6.9,17.5-0.2,24.3c3.4,3.4,7.8,5.1,12.3,5.1     c4.3,0,8.7-1.6,12-4.9l69.7-68.3c3.3-3.2,5.1-7.6,5.1-12.3S488,91.194,484.7,87.994z"
   id="path4"
   style="fill:#ffffff" />
			<path
   d="M167.5,355.094l24.9-33.8c5.6-7.6,4-18.4-3.7-24c-7.6-5.6-18.4-4-24,3.7l-25,34.1c-0.1,0.2-0.2,0.3-0.3,0.5     c-16.7,23.4-43.9,37.4-72.7,37.4H17.1c-9.5,0-17.1,7.7-17.1,17.2s7.7,17.1,17.1,17.1h49.6     C106.7,407.294,144.4,387.794,167.5,355.094z"
   id="path6"
   style="fill:#ffffff" />
		</g>
	</g>
	<g
   id="g12"
   style="fill:#ffffff">
	</g>
	<g
   id="g14"
   style="fill:#ffffff">
	</g>
	<g
   id="g16"
   style="fill:#ffffff">
	</g>
	<g
   id="g18"
   style="fill:#ffffff">
	</g>
	<g
   id="g20"
   style="fill:#ffffff">
	</g>
	<g
   id="g22"
   style="fill:#ffffff">
	</g>
	<g
   id="g24"
   style="fill:#ffffff">
	</g>
	<g
   id="g26"
   style="fill:#ffffff">
	</g>
	<g
   id="g28"
   style="fill:#ffffff">
	</g>
	<g
   id="g30"
   style="fill:#ffffff">
	</g>
	<g
   id="g32"
   style="fill:#ffffff">
	</g>
	<g
   id="g34"
   style="fill:#ffffff">
	</g>
	<g
   id="g36"
   style="fill:#ffffff">
	</g>
	<g
   id="g38"
   style="fill:#ffffff">
	</g>
	<g
   id="g40"
   style="fill:#ffffff">
	</g>
</g>
<g
   id="g44">
</g>
<g
   id="g46">
</g>
<g
   id="g48">
</g>
<g
   id="g50">
</g>
<g
   id="g52">
</g>
<g
   id="g54">
</g>
<g
   id="g56">
</g>
<g
   id="g58">
</g>
<g
   id="g60">
</g>
<g
   id="g62">
</g>
<g
   id="g64">
</g>
<g
   id="g66">
</g>
<g
   id="g68">
</g>
<g
   id="g70">
</g>
<g
   id="g72">
</g>
</svg>
